<?xml version="1.0" encoding="UTF-8" standalone="no"?><svg xmlns="http://www.w3.org/2000/svg" xmlns:xlink="http://www.w3.org/1999/xlink" contentStyleType="text/css" height="463px" preserveAspectRatio="none" style="width:896px;height:463px;background:#FFFFFF;" version="1.1" viewBox="0 0 896 463" width="896px" zoomAndPan="magnify"><defs/><g><!--MD5=[1035515eb14b5228f153ae78bdf69e99]
entity PM--><g id="elem_PM"><rect fill="#FFD700" height="45.6" rx="2.5" ry="2.5" style="stroke:#000000;stroke-width:0.5;" width="184" x="550" y="42.149"/><rect fill="#FFD700" height="10" style="stroke:#000000;stroke-width:0.5;" width="15" x="714" y="47.149"/><rect fill="#FFD700" height="2" style="stroke:#000000;stroke-width:0.5;" width="4" x="712" y="49.149"/><rect fill="#FFD700" height="2" style="stroke:#000000;stroke-width:0.5;" width="4" x="712" y="53.149"/><text fill="#000000" font-family="Courier" font-size="13" lengthAdjust="spacing" textLength="144" x="565" y="74.187">prediction-markets</text></g><!--MD5=[7fd26a705acf29f011d2a1fffbedca5c]
entity AU--><g id="elem_AU"><rect fill="#FFD700" height="45.6" rx="2.5" ry="2.5" style="stroke:#000000;stroke-width:0.5;" width="120" x="7" y="42.149"/><rect fill="#FFD700" height="10" style="stroke:#000000;stroke-width:0.5;" width="15" x="107" y="47.149"/><rect fill="#FFD700" height="2" style="stroke:#000000;stroke-width:0.5;" width="4" x="105" y="49.149"/><rect fill="#FFD700" height="2" style="stroke:#000000;stroke-width:0.5;" width="4" x="105" y="53.149"/><text fill="#000000" font-family="Courier" font-size="13" lengthAdjust="spacing" textLength="80" x="22" y="74.187">authorized</text></g><!--MD5=[a5b967d04f29643cfceb0ef580791330]
entity MC--><g id="elem_MC"><rect fill="#FFD700" height="45.6" rx="2.5" ry="2.5" style="stroke:#000000;stroke-width:0.5;" width="152" x="232" y="289.149"/><rect fill="#FFD700" height="10" style="stroke:#000000;stroke-width:0.5;" width="15" x="364" y="294.149"/><rect fill="#FFD700" height="2" style="stroke:#000000;stroke-width:0.5;" width="4" x="362" y="296.149"/><rect fill="#FFD700" height="2" style="stroke:#000000;stroke-width:0.5;" width="4" x="362" y="300.149"/><text fill="#000000" font-family="Courier" font-size="13" lengthAdjust="spacing" textLength="112" x="247" y="321.187">market-commons</text></g><!--MD5=[f0e91d5aa74c2411969e7ef072c6f268]
entity SD--><g id="elem_SD"><rect fill="#D3D3D3" height="45.6" rx="2.5" ry="2.5" style="stroke:#000000;stroke-width:0.5;" width="160" x="162" y="42.149"/><rect fill="#D3D3D3" height="10" style="stroke:#000000;stroke-width:0.5;" width="15" x="302" y="47.149"/><rect fill="#D3D3D3" height="2" style="stroke:#000000;stroke-width:0.5;" width="4" x="300" y="49.149"/><rect fill="#D3D3D3" height="2" style="stroke:#000000;stroke-width:0.5;" width="4" x="300" y="53.149"/><text fill="#000000" font-family="Courier" font-size="13" lengthAdjust="spacing" textLength="120" x="177" y="74.187">simple-disputes</text></g><!--MD5=[b5af4e906b5608882632c7d969b5b8a1]
entity CO--><g id="elem_CO"><rect fill="#D3D3D3" height="45.6" rx="2.5" ry="2.5" style="stroke:#000000;stroke-width:0.5;" width="80" x="357" y="42.149"/><rect fill="#D3D3D3" height="10" style="stroke:#000000;stroke-width:0.5;" width="15" x="417" y="47.149"/><rect fill="#D3D3D3" height="2" style="stroke:#000000;stroke-width:0.5;" width="4" x="415" y="49.149"/><rect fill="#D3D3D3" height="2" style="stroke:#000000;stroke-width:0.5;" width="4" x="415" y="53.149"/><text fill="#000000" font-family="Courier" font-size="13" lengthAdjust="spacing" textLength="40" x="372" y="74.187">court</text></g><!--MD5=[0780ab315ad9a7886f8ff94304e1d4cd]
entity SW--><g id="elem_SW"><rect fill="#FFD700" height="45.6" rx="2.5" ry="2.5" style="stroke:#000000;stroke-width:0.5;" width="80" x="602" y="166.149"/><rect fill="#FFD700" height="10" style="stroke:#000000;stroke-width:0.5;" width="15" x="662" y="171.149"/><rect fill="#FFD700" height="2" style="stroke:#000000;stroke-width:0.5;" width="4" x="660" y="173.149"/><rect fill="#FFD700" height="2" style="stroke:#000000;stroke-width:0.5;" width="4" x="660" y="177.149"/><text fill="#000000" font-family="Courier" font-size="13" lengthAdjust="spacing" textLength="40" x="617" y="198.187">swaps</text></g><!--MD5=[0c4ef4a0563b772d71552c92eeb1da12]
entity RI--><g id="elem_RI"><rect fill="#D3D3D3" height="45.6" rx="2.5" ry="2.5" style="stroke:#000000;stroke-width:0.5;" width="96" x="502" y="289.149"/><rect fill="#D3D3D3" height="10" style="stroke:#000000;stroke-width:0.5;" width="15" x="578" y="294.149"/><rect fill="#D3D3D3" height="2" style="stroke:#000000;stroke-width:0.5;" width="4" x="576" y="296.149"/><rect fill="#D3D3D3" height="2" style="stroke:#000000;stroke-width:0.5;" width="4" x="576" y="300.149"/><text fill="#000000" font-family="Courier" font-size="13" lengthAdjust="spacing" textLength="56" x="517" y="321.187">rikiddo</text></g><!--MD5=[4ff3548512ed7536ef7376856685bd64]
entity LM--><g id="elem_LM"><rect fill="#D3D3D3" height="45.6" rx="2.5" ry="2.5" style="stroke:#000000;stroke-width:0.5;" width="168" x="558" y="412.149"/><rect fill="#D3D3D3" height="10" style="stroke:#000000;stroke-width:0.5;" width="15" x="706" y="417.149"/><rect fill="#D3D3D3" height="2" style="stroke:#000000;stroke-width:0.5;" width="4" x="704" y="419.149"/><rect fill="#D3D3D3" height="2" style="stroke:#000000;stroke-width:0.5;" width="4" x="704" y="423.149"/><text fill="#000000" font-family="Courier" font-size="13" lengthAdjust="spacing" textLength="128" x="573" y="444.187">liquidity-mining</text></g><!--MD5=[01f5737ef1905f25dec09d9b8807d670]
entity SwapsAPI--><g id="elem_SwapsAPI"><ellipse cx="642" cy="127.149" fill="#008000" rx="8" ry="8" style="stroke:#000000;stroke-width:0.5;"/><text fill="#000000" font-family="sans-serif" font-size="14" lengthAdjust="spacing" textLength="68" x="608" y="157.1441">SwapsAPI</text></g><!--MD5=[c579654740c0997c80c5d9a983ee6757]
entity MarketsAPI--><g id="elem_MarketsAPI"><ellipse cx="428" cy="312.149" fill="#008000" rx="8" ry="8" style="stroke:#000000;stroke-width:0.5;"/><text fill="#000000" font-family="sans-serif" font-size="14" lengthAdjust="spacing" textLength="81" x="387.5" y="342.1441">MarketsAPI</text></g><!--MD5=[a7ce1b25ef9d41dc7bf0614f19e5ca58]
entity DisputeAPI--><g id="elem_DisputeAPI"><ellipse cx="481" cy="65.149" fill="#008000" rx="8" ry="8" style="stroke:#000000;stroke-width:0.5;"/><text fill="#000000" font-family="sans-serif" font-size="14" lengthAdjust="spacing" textLength="79" x="441.5" y="95.1441">DisputeAPI</text></g><!--MD5=[30c0537ec00b77a857f28df591058376]
entity RikiddoMVPallet--><g id="elem_RikiddoMVPallet"><ellipse cx="642" cy="312.149" fill="#008000" rx="8" ry="8" style="stroke:#000000;stroke-width:0.5;"/><text fill="#000000" font-family="sans-serif" font-size="14" lengthAdjust="spacing" textLength="117" x="583.5" y="342.1441">RikiddoMVPallet</text></g><!--MD5=[5c2a37adb829f5b1e12196c4a117e8ef]
entity LiquidityMiningPalletApi--><g id="elem_LiquidityMiningPalletApi"><ellipse cx="803" cy="65.149" fill="#008000" rx="8" ry="8" style="stroke:#000000;stroke-width:0.5;"/><text fill="#000000" font-family="sans-serif" font-size="14" lengthAdjust="spacing" textLength="173" x="716.5" y="95.1441">LiquidityMiningPalletApi</text></g><!--MD5=[21ebb5f0bc93d22f49bab8dc2e81066d]
link MC to MarketsAPI--><g id="link_MC_MarketsAPI"><path d="M384.406,312.149 C395.872,312.149 407.338,312.149 418.804,312.149 " fill="none" id="MC-MarketsAPI" style="stroke:#FF6655;stroke-width:1.0;"/></g><!--MD5=[a44b9b171d68a41930cf1adc460fde99]
link AU to DisputeAPI--><g id="link_AU_DisputeAPI"><path d="M114.478,41.951 C129.194,35.892 145.702,30.206 161.5,27.149 C221.498,15.538 379.165,6 436.5,27.149 C451.941,32.845 465.66,46.549 473.652,55.845 " fill="none" id="AU-DisputeAPI" style="stroke:#FF6655;stroke-width:1.0;"/></g><!--MD5=[6d4d5f55fc91a1385997d16d6a97f0c5]
link SD to DisputeAPI--><g id="link_SD_DisputeAPI"><path d="M288.721,42.141 C328.846,25.621 387.758,9.169 436.5,27.149 C451.941,32.845 465.66,46.549 473.652,55.845 " fill="none" id="SD-DisputeAPI" style="stroke:#FF6655;stroke-width:1.0;"/></g><!--MD5=[4141f6b56f6e01a792fa119fb008b272]
link CO to DisputeAPI--><g id="link_CO_DisputeAPI"><path d="M437.031,65.149 C448.596,65.149 460.161,65.149 471.725,65.149 " fill="none" id="CO-DisputeAPI" style="stroke:#FF6655;stroke-width:1.0;"/></g><!--MD5=[ac53746dd99e4efb89fcd3df0ad626d7]
link LM to LiquidityMiningPalletApi--><g id="link_LM_LiquidityMiningPalletApi"><path d="M653.429,412.023 C658.076,402.8411 663.419,392.0406 668,382.149 C724.031,261.158 785.125,110.57 799.734,74.285 " fill="none" id="LM-LiquidityMiningPalletApi" style="stroke:#FF6655;stroke-width:1.0;"/></g><!--MD5=[b8012b9822b45c1a98e24e67603eff69]
reverse link MarketsAPI to LM--><g id="link_MarketsAPI_LM"><path d="M441.923,321.021 C474.024,339.172 554.195,384.5025 602.749,411.9557 " fill="none" id="MarketsAPI-backto-LM" style="stroke:#FF6655;stroke-width:1.0;stroke-dasharray:7.0,7.0;"/><polygon fill="#FF6655" points="437.195,318.348,443.0603,326.2599,441.5473,320.8091,446.9981,319.2962,437.195,318.348" style="stroke:#FF6655;stroke-width:1.0;"/><text fill="#000000" font-family="sans-serif" font-size="13" lengthAdjust="spacing" textLength="23" x="549" y="378.2159">use</text></g><!--MD5=[673ed5908652341ac155e56cf3a9a104]
link RikiddoMVPallet to LM--><!--MD5=[f9731521b7bbd7bfad4c4293f188c1c6]
link RI to RikiddoMVPallet--><g id="link_RI_RikiddoMVPallet"><path d="M598.156,312.149 C609.688,312.149 621.22,312.149 632.752,312.149 " fill="none" id="RI-RikiddoMVPallet" style="stroke:#FF6655;stroke-width:1.0;"/></g><!--MD5=[5b0fd80b8964259b89d1fb4a240de45d]
link PM to SwapsAPI--><g id="link_PM_SwapsAPI"><path d="M642,88.15 C642,96.465 642,105.665 642,112.93 " fill="none" id="PM-to-SwapsAPI" style="stroke:#FF6655;stroke-width:1.0;stroke-dasharray:7.0,7.0;"/><polygon fill="#FF6655" points="642,118.061,646,109.061,642,113.061,638,109.061,642,118.061" style="stroke:#FF6655;stroke-width:1.0;"/></g><!--MD5=[210255f0682c8ad5bef1d436e8f4e137]
link PM to MarketsAPI--><g id="link_PM_MarketsAPI"><path d="M622.631,88.323 C578.754,138.556 472.94,259.699 438.808,298.775 " fill="none" id="PM-to-MarketsAPI" style="stroke:#FF6655;stroke-width:1.0;stroke-dasharray:7.0,7.0;"/><polygon fill="#FF6655" points="435.369,302.712,444.3027,298.5661,438.6587,298.9466,438.2782,293.3026,435.369,302.712" style="stroke:#FF6655;stroke-width:1.0;"/><text fill="#000000" font-family="sans-serif" font-size="13" lengthAdjust="spacing" textLength="23" x="554" y="193.7159">use</text></g><!--MD5=[60a6f3e19297cc7e407d8226334ab363]
reverse link DisputeAPI to PM--><g id="link_DisputeAPI_PM"><path d="M495.196,65.149 C508.145,65.149 528.48,65.149 549.935,65.149 " fill="none" id="DisputeAPI-backto-PM" style="stroke:#FF6655;stroke-width:1.0;stroke-dasharray:7.0,7.0;"/><polygon fill="#FF6655" points="490.117,65.149,499.117,69.149,495.117,65.149,499.117,61.149,490.117,65.149" style="stroke:#FF6655;stroke-width:1.0;"/><text fill="#000000" font-family="sans-serif" font-size="13" lengthAdjust="spacing" textLength="23" x="508.5" y="58.2159">use</text></g><!--MD5=[a9b220e975aa3df88131fb491cd0f04e]
link PM to LiquidityMiningPalletApi--><g id="link_PM_LiquidityMiningPalletApi"><path d="M734.255,65.149 C755.649,65.149 775.911,65.149 788.82,65.149 " fill="none" id="PM-to-LiquidityMiningPalletApi" style="stroke:#FF6655;stroke-width:1.0;stroke-dasharray:7.0,7.0;"/><polygon fill="#FF6655" points="793.884,65.149,784.884,61.149,788.884,65.149,784.884,69.149,793.884,65.149" style="stroke:#FF6655;stroke-width:1.0;"/><text fill="#000000" font-family="sans-serif" font-size="13" lengthAdjust="spacing" textLength="23" x="752.5" y="58.2159">use</text></g><!--MD5=[e6e2ee4648cca1da0528a72d4cc4479a]
link AU to MarketsAPI--><g id="link_AU_MarketsAPI"><path d="M100.372,88.307 C182.098,142.586 386.664,278.56 401,289.149 C405.596,292.544 410.478,296.43 414.809,299.983 " fill="none" id="AU-to-MarketsAPI" style="stroke:#FF6655;stroke-width:1.0;stroke-dasharray:7.0,7.0;"/><polygon fill="#FF6655" points="418.924,303.393,414.5459,294.5708,415.0739,300.2029,409.4417,300.7309,418.924,303.393" style="stroke:#FF6655;stroke-width:1.0;"/><text fill="#000000" font-family="sans-serif" font-size="13" lengthAdjust="spacing" textLength="23" x="288" y="193.7159">use</text></g><!--MD5=[8142e01162916d1e034de0324d774c05]
link CO to MarketsAPI--><g id="link_CO_MarketsAPI"><path d="M399.806,88.323 C406.085,137.946 421.119,256.767 426.25,297.315 " fill="none" id="CO-to-MarketsAPI" style="stroke:#FF6655;stroke-width:1.0;stroke-dasharray:7.0,7.0;"/><polygon fill="#FF6655" points="426.932,302.712,429.7714,293.2813,426.3048,297.7515,421.8346,294.2849,426.932,302.712" style="stroke:#FF6655;stroke-width:1.0;"/><text fill="#000000" font-family="sans-serif" font-size="13" lengthAdjust="spacing" textLength="23" x="417" y="193.7159">use</text></g><!--MD5=[03badbba004d4ac9c3245a73350cc2bd]
link SD to MarketsAPI--><g id="link_SD_MarketsAPI"><path d="M258.834,88.323 C296.816,138.353 388.196,258.719 418.243,298.296 " fill="none" id="SD-to-MarketsAPI" style="stroke:#FF6655;stroke-width:1.0;stroke-dasharray:7.0,7.0;"/><polygon fill="#FF6655" points="421.595,302.712,419.3385,293.1251,418.5715,298.7297,412.9669,297.9627,421.595,302.712" style="stroke:#FF6655;stroke-width:1.0;"/><text fill="#000000" font-family="sans-serif" font-size="13" lengthAdjust="spacing" textLength="23" x="352" y="193.7159">use</text></g><!--MD5=[f8ed07107fa6b78f0260cfa0243463de]
link SwapsAPI to SW--><g id="link_SwapsAPI_SW"><path d="M642,136.492 C642,144.091 642,155.66 642,165.924 " fill="none" id="SwapsAPI-SW" style="stroke:#FF6655;stroke-width:1.0;"/></g><!--MD5=[324ac96b39b5a8a97095c69599654f0d]
link SW to RikiddoMVPallet--><g id="link_SW_RikiddoMVPallet"><path d="M642,212.342 C642,237.394 642,277.332 642,297.92 " fill="none" id="SW-to-RikiddoMVPallet" style="stroke:#FF6655;stroke-width:1.0;stroke-dasharray:7.0,7.0;"/><polygon fill="#FF6655" points="642,302.951,646,293.951,642,297.951,638,293.951,642,302.951" style="stroke:#FF6655;stroke-width:1.0;"/><text fill="#000000" font-family="sans-serif" font-size="13" lengthAdjust="spacing" textLength="23" x="643" y="255.2159">use</text></g><!--MD5=[b283db6e2c07f4c57271ae9e60419f7d]
reverse link LiquidityMiningPalletApi to SW--><g id="link_LiquidityMiningPalletApi_SW"><path d="M789.735,76.201 C763.945,95.743 706.496,139.276 671.321,165.931 " fill="none" id="LiquidityMiningPalletApi-backto-SW" style="stroke:#FF6655;stroke-width:1.0;stroke-dasharray:7.0,7.0;"/><polygon fill="#FF6655" points="793.883,73.058,784.2938,75.3046,789.8976,76.0774,789.1248,81.6812,793.883,73.058" style="stroke:#FF6655;stroke-width:1.0;"/><text fill="#000000" font-family="sans-serif" font-size="13" lengthAdjust="spacing" textLength="23" x="734" y="131.7159">use</text></g><!--MD5=[75a4603c3e427561b2299a16522c0e1e]
link SW to MarketsAPI--><g id="link_SW_MarketsAPI"><path d="M605.336,212.289 C582.388,226.018 552.129,243.886 525,259.149 C495.774,275.592 461.032,293.929 442.073,303.835 " fill="none" id="SW-to-MarketsAPI" style="stroke:#FF6655;stroke-width:1.0;stroke-dasharray:7.0,7.0;"/><polygon fill="#FF6655" points="437.161,306.397,446.9905,305.7801,441.5939,304.0841,443.2899,298.6875,437.161,306.397" style="stroke:#FF6655;stroke-width:1.0;"/><text fill="#000000" font-family="sans-serif" font-size="13" lengthAdjust="spacing" textLength="23" x="556" y="255.2159">use</text></g><!--MD5=[c495d63aa2831d92e25d51314b9c6f7a]
@startuml
skinparam interface {
  backgroundColor Green
  borderColor black
}

skinparam component {
  FontSize 13
  FontName Courier
  FontColor black
  BorderColor black
  BackgroundColor gold
  ArrowColor #FF6655
}

[prediction-markets] as PM
[authorized] as AU
[market-commons] as MC
[simple-disputes] as SD #Lightgray
[court] as CO #Lightgray
[swaps] as SW
[rikiddo] as RI #Lightgray
[liquidity-mining] as LM #Lightgray
() SwapsAPI
() MarketsAPI
() DisputeAPI
() RikiddoMVPallet
() LiquidityMiningPalletApi

MC - MarketsAPI
AU - DisputeAPI
SD - DisputeAPI
CO - DisputeAPI
LM -r- LiquidityMiningPalletApi
LM .l.> MarketsAPI: use
LM -[hidden]u- RikiddoMVPallet
RI -r- RikiddoMVPallet
PM .r.> SwapsAPI : use
PM ..> MarketsAPI : use
PM .l.> DisputeAPI : use
PM .r.> LiquidityMiningPalletApi : use
AU ..> MarketsAPI : use
CO ..> MarketsAPI : use
SD ..> MarketsAPI : use
SW -l- SwapsAPI
SW ..> RikiddoMVPallet : use
SW .u.> LiquidityMiningPalletApi : use
SW .d.> MarketsAPI : use
@enduml

PlantUML version 1.2022.6beta5(Unknown compile time)
(GPL source distribution)
Java Runtime: Java(TM) SE Runtime Environment
JVM: Java HotSpot(TM) 64-Bit Server VM
Default Encoding: UTF-8
Language: en
Country: US
--></g></svg>