<?xml version="1.0" encoding="UTF-8" standalone="no"?><svg xmlns="http://www.w3.org/2000/svg" xmlns:xlink="http://www.w3.org/1999/xlink" contentStyleType="text/css" height="314px" preserveAspectRatio="none" style="width:952px;height:314px;background:#FFFFFF;" version="1.1" viewBox="0 0 952 314" width="952px" zoomAndPan="magnify"><defs/><g><!--MD5=[1035515eb14b5228f153ae78bdf69e99]
entity PM--><g id="elem_PM"><rect fill="#FFD700" height="45.6" rx="2.5" ry="2.5" style="stroke:#000000;stroke-width:0.5;" width="184" x="550" y="130"/><rect fill="#FFD700" height="10" style="stroke:#000000;stroke-width:0.5;" width="15" x="714" y="135"/><rect fill="#FFD700" height="2" style="stroke:#000000;stroke-width:0.5;" width="4" x="712" y="137"/><rect fill="#FFD700" height="2" style="stroke:#000000;stroke-width:0.5;" width="4" x="712" y="141"/><text fill="#000000" font-family="Courier" font-size="13" lengthAdjust="spacing" textLength="144" x="565" y="162.038">prediction-markets</text></g><!--MD5=[7fd26a705acf29f011d2a1fffbedca5c]
entity AU--><g id="elem_AU"><rect fill="#FFD700" height="45.6" rx="2.5" ry="2.5" style="stroke:#000000;stroke-width:0.5;" width="120" x="7" y="130"/><rect fill="#FFD700" height="10" style="stroke:#000000;stroke-width:0.5;" width="15" x="107" y="135"/><rect fill="#FFD700" height="2" style="stroke:#000000;stroke-width:0.5;" width="4" x="105" y="137"/><rect fill="#FFD700" height="2" style="stroke:#000000;stroke-width:0.5;" width="4" x="105" y="141"/><text fill="#000000" font-family="Courier" font-size="13" lengthAdjust="spacing" textLength="80" x="22" y="162.038">authorized</text></g><!--MD5=[a5b967d04f29643cfceb0ef580791330]
entity MC--><g id="elem_MC"><rect fill="#FFD700" height="45.6" rx="2.5" ry="2.5" style="stroke:#000000;stroke-width:0.5;" width="152" x="201" y="253"/><rect fill="#FFD700" height="10" style="stroke:#000000;stroke-width:0.5;" width="15" x="333" y="258"/><rect fill="#FFD700" height="2" style="stroke:#000000;stroke-width:0.5;" width="4" x="331" y="260"/><rect fill="#FFD700" height="2" style="stroke:#000000;stroke-width:0.5;" width="4" x="331" y="264"/><text fill="#000000" font-family="Courier" font-size="13" lengthAdjust="spacing" textLength="112" x="216" y="285.038">market-commons</text></g><!--MD5=[f0e91d5aa74c2411969e7ef072c6f268]
entity SD--><g id="elem_SD"><rect fill="#D3D3D3" height="45.6" rx="2.5" ry="2.5" style="stroke:#000000;stroke-width:0.5;" width="160" x="162" y="130"/><rect fill="#D3D3D3" height="10" style="stroke:#000000;stroke-width:0.5;" width="15" x="302" y="135"/><rect fill="#D3D3D3" height="2" style="stroke:#000000;stroke-width:0.5;" width="4" x="300" y="137"/><rect fill="#D3D3D3" height="2" style="stroke:#000000;stroke-width:0.5;" width="4" x="300" y="141"/><text fill="#000000" font-family="Courier" font-size="13" lengthAdjust="spacing" textLength="120" x="177" y="162.038">simple-disputes</text></g><!--MD5=[b5af4e906b5608882632c7d969b5b8a1]
entity CO--><g id="elem_CO"><rect fill="#D3D3D3" height="45.6" rx="2.5" ry="2.5" style="stroke:#000000;stroke-width:0.5;" width="80" x="357" y="130"/><rect fill="#D3D3D3" height="10" style="stroke:#000000;stroke-width:0.5;" width="15" x="417" y="135"/><rect fill="#D3D3D3" height="2" style="stroke:#000000;stroke-width:0.5;" width="4" x="415" y="137"/><rect fill="#D3D3D3" height="2" style="stroke:#000000;stroke-width:0.5;" width="4" x="415" y="141"/><text fill="#000000" font-family="Courier" font-size="13" lengthAdjust="spacing" textLength="40" x="372" y="162.038">court</text></g><!--MD5=[0780ab315ad9a7886f8ff94304e1d4cd]
entity SW--><g id="elem_SW"><rect fill="#FFD700" height="45.6" rx="2.5" ry="2.5" style="stroke:#000000;stroke-width:0.5;" width="80" x="847" y="130"/><rect fill="#FFD700" height="10" style="stroke:#000000;stroke-width:0.5;" width="15" x="907" y="135"/><rect fill="#FFD700" height="2" style="stroke:#000000;stroke-width:0.5;" width="4" x="905" y="137"/><rect fill="#FFD700" height="2" style="stroke:#000000;stroke-width:0.5;" width="4" x="905" y="141"/><text fill="#000000" font-family="Courier" font-size="13" lengthAdjust="spacing" textLength="40" x="862" y="162.038">swaps</text></g><!--MD5=[0c4ef4a0563b772d71552c92eeb1da12]
entity RI--><g id="elem_RI"><rect fill="#D3D3D3" height="45.6" rx="2.5" ry="2.5" style="stroke:#000000;stroke-width:0.5;" width="96" x="747" y="253"/><rect fill="#D3D3D3" height="10" style="stroke:#000000;stroke-width:0.5;" width="15" x="823" y="258"/><rect fill="#D3D3D3" height="2" style="stroke:#000000;stroke-width:0.5;" width="4" x="821" y="260"/><rect fill="#D3D3D3" height="2" style="stroke:#000000;stroke-width:0.5;" width="4" x="821" y="264"/><text fill="#000000" font-family="Courier" font-size="13" lengthAdjust="spacing" textLength="56" x="762" y="285.038">rikiddo</text></g><!--MD5=[4ff3548512ed7536ef7376856685bd64]
entity LM--><g id="elem_LM"><rect fill="#D3D3D3" height="45.6" rx="2.5" ry="2.5" style="stroke:#000000;stroke-width:0.5;" width="168" x="575" y="7"/><rect fill="#D3D3D3" height="10" style="stroke:#000000;stroke-width:0.5;" width="15" x="723" y="12"/><rect fill="#D3D3D3" height="2" style="stroke:#000000;stroke-width:0.5;" width="4" x="721" y="14"/><rect fill="#D3D3D3" height="2" style="stroke:#000000;stroke-width:0.5;" width="4" x="721" y="18"/><text fill="#000000" font-family="Courier" font-size="13" lengthAdjust="spacing" textLength="128" x="590" y="39.038">liquidity-mining</text></g><!--MD5=[01f5737ef1905f25dec09d9b8807d670]
entity SwapsAPI--><g id="elem_SwapsAPI"><ellipse cx="803" cy="153" fill="#008000" rx="8" ry="8" style="stroke:#000000;stroke-width:0.5;"/><text fill="#000000" font-family="sans-serif" font-size="14" lengthAdjust="spacing" textLength="68" x="769" y="182.9951">SwapsAPI</text></g><!--MD5=[c579654740c0997c80c5d9a983ee6757]
entity MarketsAPI--><g id="elem_MarketsAPI"><ellipse cx="397" cy="276" fill="#008000" rx="8" ry="8" style="stroke:#000000;stroke-width:0.5;"/><text fill="#000000" font-family="sans-serif" font-size="14" lengthAdjust="spacing" textLength="81" x="356.5" y="305.9951">MarketsAPI</text></g><!--MD5=[a7ce1b25ef9d41dc7bf0614f19e5ca58]
entity DisputeAPI--><g id="elem_DisputeAPI"><ellipse cx="481" cy="153" fill="#008000" rx="8" ry="8" style="stroke:#000000;stroke-width:0.5;"/><text fill="#000000" font-family="sans-serif" font-size="14" lengthAdjust="spacing" textLength="79" x="441.5" y="182.9951">DisputeAPI</text></g><!--MD5=[30c0537ec00b77a857f28df591058376]
entity RikiddoMVPallet--><g id="elem_RikiddoMVPallet"><ellipse cx="887" cy="276" fill="#008000" rx="8" ry="8" style="stroke:#000000;stroke-width:0.5;"/><text fill="#000000" font-family="sans-serif" font-size="14" lengthAdjust="spacing" textLength="117" x="828.5" y="305.9951">RikiddoMVPallet</text></g><!--MD5=[5c2a37adb829f5b1e12196c4a117e8ef]
entity LiquidityMiningPalletApi--><g id="elem_LiquidityMiningPalletApi"><ellipse cx="787" cy="30" fill="#008000" rx="8" ry="8" style="stroke:#000000;stroke-width:0.5;"/><text fill="#000000" font-family="sans-serif" font-size="14" lengthAdjust="spacing" textLength="173" x="700.5" y="59.9951">LiquidityMiningPalletApi</text></g><!--MD5=[f8ed07107fa6b78f0260cfa0243463de]
link SwapsAPI to SW--><g id="link_SwapsAPI_SW"><path d="M812.188,153 C823.78,153 835.372,153 846.964,153 " fill="none" id="SwapsAPI-SW" style="stroke:#FF6655;stroke-width:1.0;"/></g><!--MD5=[21ebb5f0bc93d22f49bab8dc2e81066d]
link MC to MarketsAPI--><g id="link_MC_MarketsAPI"><path d="M353.406,276 C364.872,276 376.338,276 387.804,276 " fill="none" id="MC-MarketsAPI" style="stroke:#FF6655;stroke-width:1.0;"/></g><!--MD5=[a44b9b171d68a41930cf1adc460fde99]
link AU to DisputeAPI--><g id="link_AU_DisputeAPI"><path d="M93.3988,129.808 C111.272,115.709 136.166,99.018 161.5,91.5 C278.672,56.73 327.653,35.906 436.5,91.5 C458.096,102.53 471.636,129.475 477.545,143.76 " fill="none" id="AU-DisputeAPI" style="stroke:#FF6655;stroke-width:1.0;"/></g><!--MD5=[6d4d5f55fc91a1385997d16d6a97f0c5]
link SD to DisputeAPI--><g id="link_SD_DisputeAPI"><path d="M274.759,129.751 C296.733,115.628 326.958,98.932 356.5,91.5 C390.981,82.826 404.835,75.327 436.5,91.5 C458.096,102.53 471.636,129.475 477.545,143.76 " fill="none" id="SD-DisputeAPI" style="stroke:#FF6655;stroke-width:1.0;"/></g><!--MD5=[4141f6b56f6e01a792fa119fb008b272]
link CO to DisputeAPI--><g id="link_CO_DisputeAPI"><path d="M437.031,153 C448.596,153 460.161,153 471.725,153 " fill="none" id="CO-DisputeAPI" style="stroke:#FF6655;stroke-width:1.0;"/></g><!--MD5=[ac53746dd99e4efb89fcd3df0ad626d7]
link LM to LiquidityMiningPalletApi--><g id="link_LM_LiquidityMiningPalletApi"><path d="M743.5,30 C754.941,30 766.383,30 777.824,30 " fill="none" id="LM-LiquidityMiningPalletApi" style="stroke:#FF6655;stroke-width:1.0;"/></g><!--MD5=[f9731521b7bbd7bfad4c4293f188c1c6]
link RI to RikiddoMVPallet--><g id="link_RI_RikiddoMVPallet"><path d="M843.156,276 C854.688,276 866.22,276 877.752,276 " fill="none" id="RI-RikiddoMVPallet" style="stroke:#FF6655;stroke-width:1.0;"/></g><!--MD5=[5b0fd80b8964259b89d1fb4a240de45d]
link PM to SwapsAPI--><g id="link_PM_SwapsAPI"><path d="M734.255,153 C755.649,153 775.911,153 788.82,153 " fill="none" id="PM-to-SwapsAPI" style="stroke:#FF6655;stroke-width:1.0;stroke-dasharray:7.0,7.0;"/><polygon fill="#FF6655" points="793.884,153,784.884,149,788.884,153,784.884,157,793.884,153" style="stroke:#FF6655;stroke-width:1.0;"/><text fill="#000000" font-family="sans-serif" font-size="13" lengthAdjust="spacing" textLength="23" x="752.5" y="146.0669">use</text></g><!--MD5=[210255f0682c8ad5bef1d436e8f4e137]
link PM to MarketsAPI--><g id="link_PM_MarketsAPI"><path d="M597.348,176.053 C540.781,203.9896 446.4,250.6025 410.989,268.0912 " fill="none" id="PM-to-MarketsAPI" style="stroke:#FF6655;stroke-width:1.0;stroke-dasharray:7.0,7.0;"/><polygon fill="#FF6655" points="406.204,270.4544,416.0448,270.0552,410.687,268.2402,412.502,262.8824,406.204,270.4544" style="stroke:#FF6655;stroke-width:1.0;"/><text fill="#000000" font-family="sans-serif" font-size="13" lengthAdjust="spacing" textLength="23" x="536" y="219.0669">use</text></g><!--MD5=[60a6f3e19297cc7e407d8226334ab363]
reverse link DisputeAPI to PM--><g id="link_DisputeAPI_PM"><path d="M495.196,153 C508.145,153 528.48,153 549.935,153 " fill="none" id="DisputeAPI-backto-PM" style="stroke:#FF6655;stroke-width:1.0;stroke-dasharray:7.0,7.0;"/><polygon fill="#FF6655" points="490.117,153,499.117,157,495.117,153,499.117,149,490.117,153" style="stroke:#FF6655;stroke-width:1.0;"/><text fill="#000000" font-family="sans-serif" font-size="13" lengthAdjust="spacing" textLength="23" x="508.5" y="146.0669">use</text></g><!--MD5=[59788e9d5072ba597ee77a686c44e054]
reverse link LiquidityMiningPalletApi to PM--><g id="link_LiquidityMiningPalletApi_PM"><path d="M773.924,42.1 C769.796,45.596 765.213,49.465 761,53 C729.501,79.429 693.147,109.629 668.993,129.652 " fill="none" id="LiquidityMiningPalletApi-backto-PM" style="stroke:#FF6655;stroke-width:1.0;stroke-dasharray:7.0,7.0;"/><polygon fill="#FF6655" points="777.871,38.757,768.4184,41.5226,774.056,41.989,773.5896,47.6266,777.871,38.757" style="stroke:#FF6655;stroke-width:1.0;"/><text fill="#000000" font-family="sans-serif" font-size="13" lengthAdjust="spacing" textLength="23" x="726" y="96.0669">use</text></g><!--MD5=[e6e2ee4648cca1da0528a72d4cc4479a]
link AU to MarketsAPI--><g id="link_AU_MarketsAPI"><path d="M127.022,173.643 C169.245,187.457 227.075,206.3703 278,223 C318.883,236.3505 332.246,232.4012 370,253 C375.202,255.8381 380.378,259.7273 384.785,263.4469 " fill="none" id="AU-to-MarketsAPI" style="stroke:#FF6655;stroke-width:1.0;stroke-dasharray:7.0,7.0;"/><polygon fill="#FF6655" points="388.596,266.7802,384.4568,257.8434,384.8331,263.4877,379.1888,263.864,388.596,266.7802" style="stroke:#FF6655;stroke-width:1.0;"/><text fill="#000000" font-family="sans-serif" font-size="13" lengthAdjust="spacing" textLength="23" x="279" y="219.0669">use</text></g><!--MD5=[8142e01162916d1e034de0324d774c05]
link CO to MarketsAPI--><g id="link_CO_MarketsAPI"><path d="M397,176.193 C397,201.245 397,241.1829 397,261.7707 " fill="none" id="CO-to-MarketsAPI" style="stroke:#FF6655;stroke-width:1.0;stroke-dasharray:7.0,7.0;"/><polygon fill="#FF6655" points="397,266.802,401,257.802,397,261.802,393,257.802,397,266.802" style="stroke:#FF6655;stroke-width:1.0;"/><text fill="#000000" font-family="sans-serif" font-size="13" lengthAdjust="spacing" textLength="23" x="398" y="219.0669">use</text></g><!--MD5=[03badbba004d4ac9c3245a73350cc2bd]
link SD to MarketsAPI--><g id="link_SD_MarketsAPI"><path d="M270.885,176.008 C296.935,195.935 336.226,226.1865 370,253 C374.475,256.5529 379.325,260.4806 383.664,264.0222 " fill="none" id="SD-to-MarketsAPI" style="stroke:#FF6655;stroke-width:1.0;stroke-dasharray:7.0,7.0;"/><polygon fill="#FF6655" points="387.8,267.407,383.3692,258.6111,383.9309,264.24,378.302,264.8017,387.8,267.407" style="stroke:#FF6655;stroke-width:1.0;"/><text fill="#000000" font-family="sans-serif" font-size="13" lengthAdjust="spacing" textLength="23" x="333" y="219.0669">use</text></g><!--MD5=[324ac96b39b5a8a97095c69599654f0d]
link SW to RikiddoMVPallet--><g id="link_SW_RikiddoMVPallet"><path d="M887,176.193 C887,201.245 887,241.1829 887,261.7707 " fill="none" id="SW-to-RikiddoMVPallet" style="stroke:#FF6655;stroke-width:1.0;stroke-dasharray:7.0,7.0;"/><polygon fill="#FF6655" points="887,266.802,891,257.802,887,261.802,883,257.802,887,266.802" style="stroke:#FF6655;stroke-width:1.0;"/><text fill="#000000" font-family="sans-serif" font-size="13" lengthAdjust="spacing" textLength="23" x="888" y="219.0669">use</text></g><!--MD5=[b283db6e2c07f4c57271ae9e60419f7d]
reverse link LiquidityMiningPalletApi to SW--><g id="link_LiquidityMiningPalletApi_SW"><path d="M797.194,43.335 C814.012,63.685 847.796,104.564 868.795,129.972 " fill="none" id="LiquidityMiningPalletApi-backto-SW" style="stroke:#FF6655;stroke-width:1.0;stroke-dasharray:7.0,7.0;"/><polygon fill="#FF6655" points="793.873,39.317,796.5236,48.8025,797.0584,43.171,802.69,43.7058,793.873,39.317" style="stroke:#FF6655;stroke-width:1.0;"/><text fill="#000000" font-family="sans-serif" font-size="13" lengthAdjust="spacing" textLength="23" x="843" y="96.0669">use</text></g><!--MD5=[75a4603c3e427561b2299a16522c0e1e]
link SW to MarketsAPI--><g id="link_SW_MarketsAPI"><path d="M846.771,170.35 C841.181,172.379 835.478,174.326 830,176 C668.509,225.3473 466.471,262.7096 411.415,272.4837 " fill="none" id="SW-to-MarketsAPI" style="stroke:#FF6655;stroke-width:1.0;stroke-dasharray:7.0,7.0;"/><polygon fill="#FF6655" points="406.27,273.3925,415.8287,275.7655,411.1937,272.5225,414.4367,267.8875,406.27,273.3925" style="stroke:#FF6655;stroke-width:1.0;"/><text fill="#000000" font-family="sans-serif" font-size="13" lengthAdjust="spacing" textLength="23" x="713" y="219.0669">use</text></g><!--MD5=[4b325fa8b9ed657b738b8d5cde68af7d]
@startuml
skinparam interface {
  backgroundColor Green
  borderColor black
}

skinparam component {
  FontSize 13
  FontName Courier
  FontColor black
  BorderColor black
  BackgroundColor gold
  ArrowColor #FF6655
}

[prediction-markets] as PM
[authorized] as AU
[market-commons] as MC
[simple-disputes] as SD #Lightgray
[court] as CO #Lightgray
[swaps] as SW
[rikiddo] as RI #Lightgray
[liquidity-mining] as LM #Lightgray
() SwapsAPI
() MarketsAPI
() DisputeAPI
() RikiddoMVPallet
() LiquidityMiningPalletApi

SW -l- SwapsAPI
MC - MarketsAPI
AU - DisputeAPI
SD - DisputeAPI
CO - DisputeAPI
LM - LiquidityMiningPalletApi
RI -r- RikiddoMVPallet
PM .r.> SwapsAPI : use
PM ..> MarketsAPI : use
PM .l.> DisputeAPI : use
PM .u.> LiquidityMiningPalletApi : use
AU ..> MarketsAPI : use
CO ..> MarketsAPI : use
SD ..> MarketsAPI : use
SW .d.> RikiddoMVPallet : use
SW .u.> LiquidityMiningPalletApi : use
SW .d.> MarketsAPI : use
@enduml

PlantUML version 1.2022.6beta5(Unknown compile time)
(GPL source distribution)
Java Runtime: Java(TM) SE Runtime Environment
JVM: Java HotSpot(TM) 64-Bit Server VM
Default Encoding: UTF-8
Language: en
Country: US
--></g></svg>