<?xml version="1.0" encoding="UTF-8" standalone="no"?><svg xmlns="http://www.w3.org/2000/svg" xmlns:xlink="http://www.w3.org/1999/xlink" contentStyleType="text/css" height="226px" preserveAspectRatio="none" style="width:952px;height:226px;background:#FFFFFF;" version="1.1" viewBox="0 0 952 226" width="952px" zoomAndPan="magnify"><defs/><g><!--MD5=[1035515eb14b5228f153ae78bdf69e99]
entity PM--><g id="elem_PM"><rect fill="#FFD700" height="45.6" rx="2.5" ry="2.5" style="stroke:#000000;stroke-width:0.5;" width="184" x="550" y="42.149"/><rect fill="#FFD700" height="10" style="stroke:#000000;stroke-width:0.5;" width="15" x="714" y="47.149"/><rect fill="#FFD700" height="2" style="stroke:#000000;stroke-width:0.5;" width="4" x="712" y="49.149"/><rect fill="#FFD700" height="2" style="stroke:#000000;stroke-width:0.5;" width="4" x="712" y="53.149"/><text fill="#000000" font-family="Courier" font-size="13" lengthAdjust="spacing" textLength="144" x="565" y="74.187">prediction-markets</text></g><!--MD5=[7fd26a705acf29f011d2a1fffbedca5c]
entity AU--><g id="elem_AU"><rect fill="#FFD700" height="45.6" rx="2.5" ry="2.5" style="stroke:#000000;stroke-width:0.5;" width="120" x="7" y="42.149"/><rect fill="#FFD700" height="10" style="stroke:#000000;stroke-width:0.5;" width="15" x="107" y="47.149"/><rect fill="#FFD700" height="2" style="stroke:#000000;stroke-width:0.5;" width="4" x="105" y="49.149"/><rect fill="#FFD700" height="2" style="stroke:#000000;stroke-width:0.5;" width="4" x="105" y="53.149"/><text fill="#000000" font-family="Courier" font-size="13" lengthAdjust="spacing" textLength="80" x="22" y="74.187">authorized</text></g><!--MD5=[a5b967d04f29643cfceb0ef580791330]
entity MC--><g id="elem_MC"><rect fill="#FFD700" height="45.6" rx="2.5" ry="2.5" style="stroke:#000000;stroke-width:0.5;" width="152" x="46" y="165.149"/><rect fill="#FFD700" height="10" style="stroke:#000000;stroke-width:0.5;" width="15" x="178" y="170.149"/><rect fill="#FFD700" height="2" style="stroke:#000000;stroke-width:0.5;" width="4" x="176" y="172.149"/><rect fill="#FFD700" height="2" style="stroke:#000000;stroke-width:0.5;" width="4" x="176" y="176.149"/><text fill="#000000" font-family="Courier" font-size="13" lengthAdjust="spacing" textLength="112" x="61" y="197.187">market-commons</text></g><!--MD5=[f0e91d5aa74c2411969e7ef072c6f268]
entity SD--><g id="elem_SD"><rect fill="#FFD700" height="45.6" rx="2.5" ry="2.5" style="stroke:#000000;stroke-width:0.5;" width="160" x="162" y="42.149"/><rect fill="#FFD700" height="10" style="stroke:#000000;stroke-width:0.5;" width="15" x="302" y="47.149"/><rect fill="#FFD700" height="2" style="stroke:#000000;stroke-width:0.5;" width="4" x="300" y="49.149"/><rect fill="#FFD700" height="2" style="stroke:#000000;stroke-width:0.5;" width="4" x="300" y="53.149"/><text fill="#000000" font-family="Courier" font-size="13" lengthAdjust="spacing" textLength="120" x="177" y="74.187">simple-disputes</text></g><!--MD5=[b5af4e906b5608882632c7d969b5b8a1]
entity CO--><g id="elem_CO"><rect fill="#D3D3D3" height="45.6" rx="2.5" ry="2.5" style="stroke:#000000;stroke-width:0.5;" width="80" x="357" y="42.149"/><rect fill="#D3D3D3" height="10" style="stroke:#000000;stroke-width:0.5;" width="15" x="417" y="47.149"/><rect fill="#D3D3D3" height="2" style="stroke:#000000;stroke-width:0.5;" width="4" x="415" y="49.149"/><rect fill="#D3D3D3" height="2" style="stroke:#000000;stroke-width:0.5;" width="4" x="415" y="53.149"/><text fill="#000000" font-family="Courier" font-size="13" lengthAdjust="spacing" textLength="40" x="372" y="74.187">court</text></g><!--MD5=[0780ab315ad9a7886f8ff94304e1d4cd]
entity SW--><g id="elem_SW"><rect fill="#FFD700" height="45.6" rx="2.5" ry="2.5" style="stroke:#000000;stroke-width:0.5;" width="80" x="847" y="42.149"/><rect fill="#FFD700" height="10" style="stroke:#000000;stroke-width:0.5;" width="15" x="907" y="47.149"/><rect fill="#FFD700" height="2" style="stroke:#000000;stroke-width:0.5;" width="4" x="905" y="49.149"/><rect fill="#FFD700" height="2" style="stroke:#000000;stroke-width:0.5;" width="4" x="905" y="53.149"/><text fill="#000000" font-family="Courier" font-size="13" lengthAdjust="spacing" textLength="40" x="862" y="74.187">swaps</text></g><!--MD5=[0c4ef4a0563b772d71552c92eeb1da12]
entity RI--><g id="elem_RI"><rect fill="#D3D3D3" height="45.6" rx="2.5" ry="2.5" style="stroke:#000000;stroke-width:0.5;" width="96" x="747" y="165.149"/><rect fill="#D3D3D3" height="10" style="stroke:#000000;stroke-width:0.5;" width="15" x="823" y="170.149"/><rect fill="#D3D3D3" height="2" style="stroke:#000000;stroke-width:0.5;" width="4" x="821" y="172.149"/><rect fill="#D3D3D3" height="2" style="stroke:#000000;stroke-width:0.5;" width="4" x="821" y="176.149"/><text fill="#000000" font-family="Courier" font-size="13" lengthAdjust="spacing" textLength="56" x="762" y="197.187">rikiddo</text></g><!--MD5=[4ff3548512ed7536ef7376856685bd64]
entity LM--><g id="elem_LM"><rect fill="#D3D3D3" height="45.6" rx="2.5" ry="2.5" style="stroke:#000000;stroke-width:0.5;" width="168" x="475" y="165.149"/><rect fill="#D3D3D3" height="10" style="stroke:#000000;stroke-width:0.5;" width="15" x="623" y="170.149"/><rect fill="#D3D3D3" height="2" style="stroke:#000000;stroke-width:0.5;" width="4" x="621" y="172.149"/><rect fill="#D3D3D3" height="2" style="stroke:#000000;stroke-width:0.5;" width="4" x="621" y="176.149"/><text fill="#000000" font-family="Courier" font-size="13" lengthAdjust="spacing" textLength="128" x="490" y="197.187">liquidity-mining</text></g><!--MD5=[01f5737ef1905f25dec09d9b8807d670]
entity SwapsAPI--><g id="elem_SwapsAPI"><ellipse cx="803" cy="65.149" fill="#008000" rx="8" ry="8" style="stroke:#000000;stroke-width:0.5;"/><text fill="#000000" font-family="sans-serif" font-size="14" lengthAdjust="spacing" textLength="68" x="769" y="95.1441">SwapsAPI</text></g><!--MD5=[c579654740c0997c80c5d9a983ee6757]
entity MarketsAPI--><g id="elem_MarketsAPI"><ellipse cx="242" cy="188.149" fill="#008000" rx="8" ry="8" style="stroke:#000000;stroke-width:0.5;"/><text fill="#000000" font-family="sans-serif" font-size="14" lengthAdjust="spacing" textLength="81" x="201.5" y="218.1441">MarketsAPI</text></g><!--MD5=[a7ce1b25ef9d41dc7bf0614f19e5ca58]
entity DisputeAPI--><g id="elem_DisputeAPI"><ellipse cx="481" cy="65.149" fill="#008000" rx="8" ry="8" style="stroke:#000000;stroke-width:0.5;"/><text fill="#000000" font-family="sans-serif" font-size="14" lengthAdjust="spacing" textLength="79" x="441.5" y="95.1441">DisputeAPI</text></g><!--MD5=[30c0537ec00b77a857f28df591058376]
entity RikiddoMVPallet--><g id="elem_RikiddoMVPallet"><ellipse cx="887" cy="188.149" fill="#008000" rx="8" ry="8" style="stroke:#000000;stroke-width:0.5;"/><text fill="#000000" font-family="sans-serif" font-size="14" lengthAdjust="spacing" textLength="117" x="828.5" y="218.1441">RikiddoMVPallet</text></g><!--MD5=[5c2a37adb829f5b1e12196c4a117e8ef]
entity LiquidityMiningPalletApi--><g id="elem_LiquidityMiningPalletApi"><ellipse cx="687" cy="188.149" fill="#008000" rx="8" ry="8" style="stroke:#000000;stroke-width:0.5;"/><text fill="#000000" font-family="sans-serif" font-size="14" lengthAdjust="spacing" textLength="173" x="600.5" y="218.1441">LiquidityMiningPalletApi</text></g><!--MD5=[f8ed07107fa6b78f0260cfa0243463de]
link SwapsAPI to SW--><g id="link_SwapsAPI_SW"><path d="M812.188,65.149 C823.78,65.149 835.372,65.149 846.964,65.149 " fill="none" id="SwapsAPI-SW" style="stroke:#FF6655;stroke-width:1.0;"/></g><!--MD5=[21ebb5f0bc93d22f49bab8dc2e81066d]
link MC to MarketsAPI--><g id="link_MC_MarketsAPI"><path d="M198.406,188.149 C209.872,188.149 221.338,188.149 232.804,188.149 " fill="none" id="MC-MarketsAPI" style="stroke:#FF6655;stroke-width:1.0;"/></g><!--MD5=[a44b9b171d68a41930cf1adc460fde99]
link AU to DisputeAPI--><g id="link_AU_DisputeAPI"><path d="M114.478,41.951 C129.194,35.892 145.702,30.206 161.5,27.149 C221.498,15.538 379.165,6 436.5,27.149 C451.941,32.845 465.66,46.549 473.652,55.845 " fill="none" id="AU-DisputeAPI" style="stroke:#FF6655;stroke-width:1.0;"/></g><!--MD5=[6d4d5f55fc91a1385997d16d6a97f0c5]
link SD to DisputeAPI--><g id="link_SD_DisputeAPI"><path d="M288.721,42.141 C328.846,25.621 387.758,9.169 436.5,27.149 C451.941,32.845 465.66,46.549 473.652,55.845 " fill="none" id="SD-DisputeAPI" style="stroke:#FF6655;stroke-width:1.0;"/></g><!--MD5=[4141f6b56f6e01a792fa119fb008b272]
link CO to DisputeAPI--><g id="link_CO_DisputeAPI"><path d="M437.031,65.149 C448.596,65.149 460.161,65.149 471.725,65.149 " fill="none" id="CO-DisputeAPI" style="stroke:#FF6655;stroke-width:1.0;"/></g><!--MD5=[ac53746dd99e4efb89fcd3df0ad626d7]
link LM to LiquidityMiningPalletApi--><g id="link_LM_LiquidityMiningPalletApi"><path d="M643.5,188.149 C654.941,188.149 666.383,188.149 677.824,188.149 " fill="none" id="LM-LiquidityMiningPalletApi" style="stroke:#FF6655;stroke-width:1.0;"/></g><!--MD5=[f9731521b7bbd7bfad4c4293f188c1c6]
link RI to RikiddoMVPallet--><g id="link_RI_RikiddoMVPallet"><path d="M843.156,188.149 C854.688,188.149 866.22,188.149 877.752,188.149 " fill="none" id="RI-RikiddoMVPallet" style="stroke:#FF6655;stroke-width:1.0;"/></g><!--MD5=[5b0fd80b8964259b89d1fb4a240de45d]
link PM to SwapsAPI--><g id="link_PM_SwapsAPI"><path d="M734.255,65.149 C755.649,65.149 775.911,65.149 788.82,65.149 " fill="none" id="PM-to-SwapsAPI" style="stroke:#FF6655;stroke-width:1.0;stroke-dasharray:7.0,7.0;"/><polygon fill="#FF6655" points="793.884,65.149,784.884,61.149,788.884,65.149,784.884,69.149,793.884,65.149" style="stroke:#FF6655;stroke-width:1.0;"/><text fill="#000000" font-family="sans-serif" font-size="13" lengthAdjust="spacing" textLength="23" x="752.5" y="58.2159">use</text></g><!--MD5=[210255f0682c8ad5bef1d436e8f4e137]
link PM to MarketsAPI--><g id="link_PM_MarketsAPI"><path d="M569.099,88.202 C471.479,117.7317 304.878,168.1284 255.917,182.939 " fill="none" id="PM-to-MarketsAPI" style="stroke:#FF6655;stroke-width:1.0;stroke-dasharray:7.0,7.0;"/><polygon fill="#FF6655" points="251.043,184.4135,260.8159,185.6347,255.8286,182.965,258.4983,177.9777,251.043,184.4135" style="stroke:#FF6655;stroke-width:1.0;"/><text fill="#000000" font-family="sans-serif" font-size="13" lengthAdjust="spacing" textLength="23" x="467" y="131.2159">use</text></g><!--MD5=[60a6f3e19297cc7e407d8226334ab363]
reverse link DisputeAPI to PM--><g id="link_DisputeAPI_PM"><path d="M495.196,65.149 C508.145,65.149 528.48,65.149 549.935,65.149 " fill="none" id="DisputeAPI-backto-PM" style="stroke:#FF6655;stroke-width:1.0;stroke-dasharray:7.0,7.0;"/><polygon fill="#FF6655" points="490.117,65.149,499.117,69.149,495.117,65.149,499.117,61.149,490.117,65.149" style="stroke:#FF6655;stroke-width:1.0;"/><text fill="#000000" font-family="sans-serif" font-size="13" lengthAdjust="spacing" textLength="23" x="508.5" y="58.2159">use</text></g><!--MD5=[a9b220e975aa3df88131fb491cd0f04e]
link PM to LiquidityMiningPalletApi--><g id="link_PM_LiquidityMiningPalletApi"><path d="M650.254,88.342 C659.61,113.5006 674.55,153.6721 682.177,174.1815 " fill="none" id="PM-to-LiquidityMiningPalletApi" style="stroke:#FF6655;stroke-width:1.0;stroke-dasharray:7.0,7.0;"/><polygon fill="#FF6655" points="683.951,178.951,684.5625,169.1211,682.2079,174.2647,677.0644,171.9101,683.951,178.951" style="stroke:#FF6655;stroke-width:1.0;"/><text fill="#000000" font-family="sans-serif" font-size="13" lengthAdjust="spacing" textLength="23" x="668" y="131.2159">use</text></g><!--MD5=[e6e2ee4648cca1da0528a72d4cc4479a]
link AU to MarketsAPI--><g id="link_AU_MarketsAPI"><path d="M102.0249,88.252 C132.422,107.746 177.341,137.307 215,165.149 C219.595,168.5459 224.476,172.4328 228.807,175.985 " fill="none" id="AU-to-MarketsAPI" style="stroke:#FF6655;stroke-width:1.0;stroke-dasharray:7.0,7.0;"/><polygon fill="#FF6655" points="232.923,179.3951,228.5447,170.5729,229.0728,176.2051,223.4407,176.7332,232.923,179.3951" style="stroke:#FF6655;stroke-width:1.0;"/><text fill="#000000" font-family="sans-serif" font-size="13" lengthAdjust="spacing" textLength="23" x="173" y="131.2159">use</text></g><!--MD5=[03badbba004d4ac9c3245a73350cc2bd]
link SD to MarketsAPI--><g id="link_SD_MarketsAPI"><path d="M242,88.342 C242,113.394 242,153.3319 242,173.9197 " fill="none" id="SD-to-MarketsAPI" style="stroke:#FF6655;stroke-width:1.0;stroke-dasharray:7.0,7.0;"/><polygon fill="#FF6655" points="242,178.951,246,169.951,242,173.951,238,169.951,242,178.951" style="stroke:#FF6655;stroke-width:1.0;"/><text fill="#000000" font-family="sans-serif" font-size="13" lengthAdjust="spacing" textLength="23" x="243" y="131.2159">use</text></g><!--MD5=[324ac96b39b5a8a97095c69599654f0d]
link SW to RikiddoMVPallet--><g id="link_SW_RikiddoMVPallet"><path d="M887,88.342 C887,113.394 887,153.3319 887,173.9197 " fill="none" id="SW-to-RikiddoMVPallet" style="stroke:#FF6655;stroke-width:1.0;stroke-dasharray:7.0,7.0;"/><polygon fill="#FF6655" points="887,178.951,891,169.951,887,173.951,883,169.951,887,178.951" style="stroke:#FF6655;stroke-width:1.0;"/><text fill="#000000" font-family="sans-serif" font-size="13" lengthAdjust="spacing" textLength="23" x="888" y="131.2159">use</text></g><!--MD5=[016da4df94c02aad63da4a9c5f03fe0a]
link SW to LiquidityMiningPalletApi--><g id="link_SW_LiquidityMiningPalletApi"><path d="M850.317,88.342 C805.359,115.542 731.395,160.2903 700.854,178.7672 " fill="none" id="SW-to-LiquidityMiningPalletApi" style="stroke:#FF6655;stroke-width:1.0;stroke-dasharray:7.0,7.0;"/><polygon fill="#FF6655" points="696.337,181.5004,706.1082,180.266,700.6155,178.913,701.9684,173.4204,696.337,181.5004" style="stroke:#FF6655;stroke-width:1.0;"/><text fill="#000000" font-family="sans-serif" font-size="13" lengthAdjust="spacing" textLength="23" x="799" y="131.2159">use</text></g><!--MD5=[c0b9e8c265003ba3fb8f05ff4007fe88]
@startuml
skinparam interface {
  backgroundColor Green
  borderColor black
}

skinparam component {
  FontSize 13
  FontName Courier
  FontColor black
  BorderColor black
  BackgroundColor gold
  ArrowColor #FF6655
}

[prediction-markets] as PM
[authorized] as AU
[market-commons] as MC
[simple-disputes] as SD
[court] as CO #Lightgray
[swaps] as SW
[rikiddo] as RI #Lightgray
[liquidity-mining] as LM #Lightgray
() SwapsAPI
() MarketsAPI
() DisputeAPI
() RikiddoMVPallet
() LiquidityMiningPalletApi

SW -l- SwapsAPI
MC - MarketsAPI
AU - DisputeAPI
SD - DisputeAPI
CO - DisputeAPI
LM - LiquidityMiningPalletApi
RI -r- RikiddoMVPallet
PM .r.> SwapsAPI : use
PM ..> MarketsAPI : use
PM .l.> DisputeAPI : use
PM .d.> LiquidityMiningPalletApi : use
AU ..> MarketsAPI : use
SD ..> MarketsAPI : use
SW .d.> RikiddoMVPallet : use
SW .d.> LiquidityMiningPalletApi : use
@enduml

PlantUML version 1.2022.4beta2(Unknown compile time)
(GPL source distribution)
Java Runtime: Java(TM) SE Runtime Environment
JVM: Java HotSpot(TM) 64-Bit Server VM
Default Encoding: UTF-8
Language: en
Country: US
--></g></svg>