<svg width="490" height="137" viewBox="0 0 490 137" fill="none" xmlns="http://www.w3.org/2000/svg">
<g clip-path="url(#clip0_313_2390)">
<path d="M217.348 55.5776V48.1357H178.465V59.1774H198.594L177.334 89.868V96.9984H217.81V86.0721H196.319L217.348 55.5776Z" fill="black"/>
<path d="M240.583 60.285C227.672 60.285 221.217 67.6346 221.217 79.0917C221.217 91.4602 229.947 97.7599 242.558 97.7599C248.782 97.7599 253.794 96.9291 257.362 95.2561V86.6835C253.727 87.9601 249.898 88.6002 246.045 88.5758C239.44 88.5758 235.652 87.1335 234.358 83.2684H259.337V76.9687C259.337 66.6539 252.281 60.285 240.583 60.285ZM247.038 75.5265H234.335C234.335 71.5113 236.079 69.3884 241.01 69.3884C245.422 69.3884 247.015 71.4306 247.015 74.2342L247.038 75.5265Z" fill="black"/>
<path d="M263.125 71.4306H268.368V96.9984H282.641V61.035H264.349L263.125 71.4306Z" fill="black"/>
<path d="M282.641 45.9436H267.224V56.2584H282.641V45.9436Z" fill="black"/>
<path d="M305.426 83.1876V71.5345H313.163L313.694 60.9889H305.426V50.2703L291.141 53.7316V61.035H286.394V71.5345H291.094V84.2261C291.094 92.5794 295.194 97.7368 304.848 97.7368C308.143 97.8443 311.425 97.2749 314.491 96.0639V86.6028C313.051 87.1063 311.536 87.3638 310.01 87.3643C306.858 87.3643 305.426 86.2221 305.426 83.1876Z" fill="black"/>
<path d="M336.398 60.285C324.48 60.285 317.921 64.4502 317.921 73.7843C317.921 78.7109 319.745 81.8607 323.926 83.9491C320.277 85.2413 318.383 87.745 318.383 90.8718C318.383 95.6484 322.552 98.0022 329.931 98.0022H339.424C342.23 98.0022 343.073 98.2329 343.073 99.4444C343.073 100.887 339.805 101.348 334.412 101.348C329.202 101.381 324.014 100.689 318.995 99.2944V108.455C322.644 109.748 329.862 110.348 335.243 110.348C349.101 110.348 355.522 106.252 355.522 99.2021C355.522 92.5217 350.972 89.0373 343.604 89.0373H335.324C333.649 89.0373 332.737 88.8065 332.737 87.745C332.737 86.372 334.643 85.8528 336.837 85.6221C338.251 85.7995 339.673 85.8996 341.098 85.9221C350.279 85.9221 354.459 81.3069 354.459 73.9343C354.472 72.4097 353.994 70.9214 353.097 69.6884H357.877L358.178 61.035H344.066C341.534 60.5834 338.97 60.3326 336.398 60.285ZM336.479 78.111C332.067 78.111 330.555 76.588 330.555 73.1728C330.555 69.5384 332.298 68.0961 336.479 68.0961C340.879 68.0961 342.391 69.6076 342.391 73.1728C342.391 76.738 340.959 78.111 336.479 78.111Z" fill="black"/>
<path d="M380.212 60.285C367.301 60.285 360.845 67.6346 360.845 79.0917C360.845 91.4602 369.576 97.7599 382.186 97.7599C388.411 97.7599 393.423 96.9291 396.991 95.2561V86.6835C393.356 87.9601 389.527 88.6002 385.674 88.5758C379.068 88.5758 375.281 87.1335 373.976 83.2684H398.966V76.9687C398.966 66.6539 391.898 60.285 380.212 60.285ZM386.667 75.5265H373.964C373.964 71.5113 375.719 69.3884 380.65 69.3884C385.062 69.3884 386.656 71.4306 386.656 74.2342L386.667 75.5265Z" fill="black"/>
<path d="M401.241 71.4306H406.472V96.9984H420.757V61.035H402.453L401.241 71.4306Z" fill="black"/>
<path d="M420.757 45.9436H405.34V56.2584H420.757V45.9436Z" fill="black"/>
<path d="M448.611 75.0765C443.75 73.5535 440.643 73.2535 440.643 71.6152C440.643 69.9768 443.599 70.0922 446.868 70.0922C450.248 70.1118 453.596 70.7573 456.741 71.9959V62.0272C452.482 60.8826 448.091 60.2969 443.68 60.285C431.532 60.285 426.058 64.3002 426.058 71.5113C426.058 77.4995 429.257 80.0839 435.862 82.4376C440.943 84.1798 444.662 84.6298 444.662 86.372C444.662 87.895 442.768 87.8143 439.119 87.8143C434.794 87.7599 430.519 86.8868 426.52 85.2413V95.4869C429.638 96.7676 435.481 97.7945 441.625 97.7945C453.254 97.7945 459.247 93.6178 459.247 86.3374C459.247 80.3031 456.822 77.4995 448.611 75.0765Z" fill="black"/>
<path d="M485.519 87.3643C482.332 87.3643 480.9 86.2105 480.9 83.1876V71.5345H488.637L489.169 60.9889H480.9V50.2703L466.627 53.7316V61.035H461.926V71.5345H466.638V84.226C466.638 92.5794 470.738 97.7368 480.38 97.7368C483.675 97.8453 486.958 97.2758 490.023 96.0638V86.6028C488.576 87.1089 487.053 87.3664 485.519 87.3643Z" fill="black"/>
<path d="M68.5115 -3.18071e-05C52.4098 -0.0261773 36.8148 5.62837 24.4717 15.9683H112.551C100.208 5.62837 84.6133 -0.0261773 68.5115 -3.18071e-05ZM68.5115 137C84.4589 137.028 99.9145 131.482 112.205 121.32H24.8063C37.1025 131.48 52.5611 137.026 68.5115 137ZM101.21 34.7749H128.231C126.009 30.8507 123.404 27.156 120.455 23.7448H16.6145C12.2684 28.7456 8.6697 34.3497 5.93044 40.3823H97.2292L101.21 34.7749ZM67.8539 72.5267H0C0.329466 78.1745 1.36041 83.7594 3.06906 89.1526H61.5081L65.5463 83.4761H135.477C136.274 79.8723 136.783 76.211 137 72.5267H67.8539ZM16.8106 113.544H43.9821L47.9627 107.959H124.608C127.063 104.484 129.187 100.788 130.954 96.9176H6.06889C8.82462 102.951 12.443 108.552 16.8106 113.544ZM83.0723 59.1659H136.435C135.934 55.4274 135.119 51.7377 134 48.1357H2.97676C1.29977 53.5331 0.29986 59.1178 0 64.7617H79.1494L83.0723 59.1659Z" fill="black"/>
</g>
<defs>
<clipPath id="clip0_313_2390">
<rect width="490" height="137" fill="white"/>
</clipPath>
</defs>
</svg>
